<?xml version="1.0" encoding="UTF-8" standalone="no"?>
<!DOCTYPE svg PUBLIC "-//W3C//DTD SVG 1.1//EN" "http://www.w3.org/Graphics/SVG/1.1/DTD/svg11.dtd">
<!-- Created with Vectornator (http://vectornator.io/) -->
<svg height="100%" stroke-miterlimit="10" style="fill-rule:nonzero;clip-rule:evenodd;stroke-linecap:round;stroke-linejoin:round;" version="1.1" viewBox="0 0 6098 1693" width="100%" xml:space="preserve" xmlns="http://www.w3.org/2000/svg" xmlns:vectornator="http://vectornator.io" xmlns:xlink="http://www.w3.org/1999/xlink">
<defs/>
<g id="Logo-Black" vectornator:layerName="Logo Black">
<path d="M57.6547 906.821C82.7364 906.036 103.342 901.531 118.859 893.092C139.052 881.909 154.566 866.613 164.983 847.191C175.608 827.569 181.775 800.111 183.9 764.598C184.75 746.949 185.38 706.534 186.025 643.373C186.657 580.405 191.124 535.285 199.622 508.02C207.914 480.945 220.872 459.362 238.306 443.28C255.947 427.199 278.264 415.421 305.254 408.169C321.62 404.044 347.542 401.892 383.457 401.892L418.533 401.892L418.533 492.521L399.191 492.521C355.617 492.521 326.927 499.973 313.111 514.689C299.304 529.402 292.286 561.374 292.286 610.607C292.286 699.667 290.795 756.561 287.819 781.082C282.512 827.961 270.396 864.055 251.479 889.168C232.564 914.082 202.816 935.657 162.217 953.507C207.914 971.56 240.856 998.626 261.47 1034.92C282.088 1071.01 292.286 1130.26 292.286 1212.65C292.286 1286.01 293.138 1329.56 294.837 1342.9C297.179 1363.69 302.486 1379.58 310.351 1390.57C316.084 1398.22 325.444 1404.31 337.975 1408.62C350.735 1413.13 377.509 1415.29 418.533 1415.29L418.533 1505.92L383.674 1505.92C342.019 1505.92 311.627 1502.58 292.494 1496.11C264.653 1486.49 242.338 1471.2 225.341 1449.82C208.547 1428.62 197.706 1400.18 192.607 1364.68C188.999 1339.37 186.874 1292.3 186.449 1223.24C186.025 1152.82 181.775 1105.14 173.689 1080.23C165.616 1055.32 151.799 1036.1 132.251 1022.56C112.909 1008.83 88.0434 1001.76 57.6547 1000.98L57.6547 906.821Z" fill="#333333" fill-rule="evenodd" opacity="1" stroke="none"/>
<path d="M1901.44 931.422L1901.44 1025.58C1876.36 1025.97 1855.74 1030.29 1840.23 1038.73C1820.04 1049.91 1804.52 1065.21 1794.11 1084.83C1783.49 1104.25 1777.32 1131.91 1775.2 1167.41C1774.35 1185.07 1773.7 1225.67 1773.07 1289.04C1772.43 1352.4 1767.97 1397.52 1759.46 1424.59C1751.18 1451.47 1738.21 1473.24 1720.79 1489.52C1703.15 1505.8 1680.83 1517.37 1653.84 1524.24C1637.48 1528.36 1611.54 1530.52 1575.63 1530.52L1540.56 1530.52L1540.56 1439.89L1559.91 1439.89C1603.47 1439.89 1632.16 1432.63 1645.98 1418.12C1659.79 1403.6 1666.81 1371.62 1666.81 1322.19C1666.81 1230.77 1668.51 1172.51 1671.69 1147.6C1677.64 1101.3 1690.82 1065.02 1711.23 1039.12C1731.84 1013.03 1760.32 992.823 1796.87 978.108C1748.41 956.727 1714.62 928.676 1695.5 893.566C1676.37 858.645 1666.81 800.775 1666.81 720.154C1666.81 635.6 1664.89 586.168 1661.28 571.655C1656.6 552.033 1647.89 538.113 1634.71 529.675C1621.75 521.236 1596.67 517.122 1559.91 517.122L1540.56 517.122L1540.56 426.493L1575.42 426.493C1617.07 426.493 1647.47 430.024 1666.59 436.884C1694.43 445.914 1716.75 461.212 1733.75 482.786C1750.54 504.168 1761.38 532.421 1766.48 567.732C1770.1 592.835 1772.22 639.924 1772.65 708.777C1773.07 779.202 1777.32 826.865 1785.39 851.977C1793.47 877.082 1807.29 896.309 1826.84 909.848C1846.18 923.576 1871.26 930.636 1901.44 931.422" fill="#333333" fill-rule="evenodd" opacity="1" stroke="none"/>
<path d="M661.516 1062.96C664.675 990.308 757.544 989.046 765.125 988.413C765.125 988.413 842.203 980.834 877.58 1013.69C912.958 1046.54 892.108 1157.73 853.57 1181.74C812.804 1207.13 744.275 1208.27 712.687 1188.05C681.098 1167.83 658.357 1135.61 661.516 1062.96M1256.06 1190.41C1223.67 1211.14 1153.41 1209.97 1111.61 1183.93C1072.1 1159.32 1050.72 1045.32 1087 1011.63C1123.27 977.949 1202.3 985.722 1202.3 985.722C1210.07 986.369 1305.29 987.665 1308.53 1062.16C1311.77 1136.65 1288.45 1169.68 1256.06 1190.41M983.541 1028.87C986.549 1029.3 990.28 1029.95 994.903 1030.9C1024.43 1036.95 1022.16 1088.43 1041.84 1142.18C1061.52 1195.93 1099.38 1248.17 1215.96 1239.08C1332.55 1230 1346.93 1125.52 1350.72 1103.57C1354.5 1081.62 1363.59 1060.42 1363.59 1060.42L1375.02 1048.99C1377.4 1046.61 1378.73 1043.39 1378.73 1040.04L1378.73 986.382C1378.73 980.48 1374.66 975.382 1368.91 974.058C1349.87 969.685 1304.64 959.909 1246.24 951.405C1168.27 940.048 1088.78 955.189 1072.12 966.546C1055.47 977.901 1041.84 981.685 1041.84 981.685L925.245 981.685C925.245 981.685 911.619 977.9 894.963 966.544C878.311 955.187 798.821 940.045 720.844 951.4C662.45 959.903 617.216 969.681 598.181 974.054C592.428 975.378 588.356 980.473 588.356 986.377L588.356 1040.03C588.356 1043.39 589.69 1046.61 592.061 1048.98L603.497 1060.41C603.497 1060.41 612.581 1081.61 616.368 1103.57C620.153 1125.52 634.533 1230 751.12 1239.08C867.706 1248.17 905.559 1195.93 925.245 1142.18C944.929 1088.43 942.658 1036.95 972.183 1030.9C976.805 1029.95 980.538 1029.3 983.541 1028.87" fill="#00b3f9" fill-rule="evenodd" opacity="1" stroke="none"/>
<path d="M778.051 1252.4C776.576 1252.43 775.14 1252.48 773.637 1252.48L773.629 1252.48C765.08 1252.48 756.068 1252.11 746.846 1251.4C737.94 1250.7 728.672 1249.41 719.298 1247.31L749.221 1340.9L857.187 1320.49C826.807 1300.77 800.352 1277.59 778.051 1252.4" fill="#333333" fill-rule="evenodd" opacity="1" stroke="none"/>
<path d="M960.513 1210.72C967.288 1218.32 968.052 1228.7 962.217 1233.9C956.383 1239.11 946.161 1237.16 939.385 1229.57C932.61 1221.97 931.847 1211.59 937.681 1206.39C943.515 1201.19 953.738 1203.13 960.513 1210.72" fill="#333333" fill-rule="evenodd" opacity="1" stroke="none"/>
<path d="M1029.84 1229.69C1022.98 1237.21 1012.73 1239.03 1006.96 1233.76C1001.19 1228.49 1002.07 1218.12 1008.94 1210.6C1015.8 1203.08 1026.05 1201.26 1031.82 1206.53C1037.59 1211.8 1036.71 1222.17 1029.84 1229.69" fill="#333333" fill-rule="evenodd" opacity="1" stroke="none"/>
<path d="M1374.39 951.308C1404.83 764.602 1247.18 669.278 1085.32 616.329C960 578.917 911.224 502.459 911.224 502.459C903.315 553.87 916.497 572.985 916.497 572.985C834.766 535.414 796.537 449.729 796.537 449.729C789.482 489.792 796.89 521.06 808.717 544.44C714.215 504.355 687.091 438.466 687.091 438.466C610.724 630.041 745.682 736.032 745.682 736.032C604.799 803.181 619.283 938.142 619.283 938.142C512.633 941.434 472.473 1030.31 511.316 1160.66C545.726 1276.14 683.969 1255.21 715.069 1248.94C689.906 1242.15 653.516 1227.81 627.841 1190.94C614.674 1215.3 543.963 1169.81 533.041 1099.43C524.657 1045.41 558.716 1040.18 573.043 1045.22C572.732 1043.52 572.556 1041.79 572.556 1040.03L572.556 986.377C572.556 973.045 581.636 961.647 594.639 958.655C616.137 953.717 660.819 944.176 718.565 935.766C727.377 934.482 736.449 933.523 745.683 932.83C753.511 926.129 762.265 920.169 772.016 915.1C903.683 846.633 1001.78 954.599 1001.78 954.599C1020.21 927.607 1086.04 855.19 1210.47 899.958C1233.27 908.164 1250.91 921.429 1264.13 938.123C1314.26 945.9 1352.93 954.174 1372.44 958.66C1385.45 961.65 1394.53 973.049 1394.53 986.383L1394.53 1040.04C1394.53 1040.95 1394.48 1041.86 1394.4 1042.76C1402.77 1036.23 1421.13 1030.97 1432.98 1038.87C1461.58 1057.93 1440.23 1099.43 1427.72 1121.16C1418.32 1137.49 1350.77 1244.23 1326.5 1202.04C1295.52 1239.37 1253.37 1252.02 1217.19 1254.83C1214.8 1255.02 1212.47 1255.12 1210.12 1255.26C1167.96 1290.11 1139.52 1315.95 1137.96 1316.47C1135.99 1317.13 1211.78 1358.16 1211.78 1358.16L1279.59 1249.53C1452.08 1300.88 1488.94 1138.27 1488.94 1138.27C1537 926.95 1374.39 951.308 1374.39 951.308" fill="#333333" fill-rule="evenodd" opacity="1" stroke="none"/>
<path d="M2134.42 1079.45C2134.42 1089.07 2135.8 1098.68 2137.19 1107.42C2148.92 1160.73 2184.14 1197.44 2228.33 1197.44C2291.85 1197.44 2329.83 1131.89 2329.83 1034.88C2329.83 950.11 2295.3 877.572 2230.4 877.572C2188.97 877.572 2150.3 913.403 2137.88 971.959C2136.5 980.698 2134.42 991.185 2134.42 1003.42L2134.42 1079.45ZM2071.59 1249C2072.97 1220.16 2074.35 1177.34 2074.35 1139.76L2074.35 628.494L2134.42 628.494L2134.42 894.177L2135.8 894.177C2157.21 846.982 2195.88 816.395 2249.73 816.395C2332.59 816.395 2391.28 903.789 2390.59 1032.26C2390.59 1183.45 2315.33 1258.62 2240.76 1258.62C2192.42 1258.62 2153.76 1235.02 2128.9 1179.09L2126.83 1179.09L2124.07 1249L2071.59 1249Z" fill="#00b3f9" fill-rule="evenodd" opacity="1" stroke="none"/>
<path d="M2643.29 1033.13C2577 1031.39 2501.74 1046.24 2501.74 1128.4C2501.74 1178.21 2527.98 1201.81 2559.05 1201.81C2602.55 1201.81 2630.17 1166.85 2639.84 1131.02C2641.91 1123.15 2643.29 1114.41 2643.29 1106.55L2643.29 1033.13ZM2652.26 1249L2647.43 1195.69L2645.36 1195.69C2626.72 1228.9 2590.81 1258.62 2543.17 1258.62C2475.5 1258.62 2440.98 1198.31 2440.98 1137.14C2440.98 1034.88 2512.79 978.95 2641.91 979.824L2641.91 971.086C2641.91 936.126 2634.31 873.202 2565.95 873.202C2534.88 873.202 2502.43 885.437 2478.95 904.663L2465.15 853.975C2492.76 831.253 2532.81 816.394 2574.93 816.394C2677.12 816.394 2701.98 904.663 2701.98 989.438L2701.98 1147.62C2701.98 1184.33 2703.36 1220.16 2707.5 1249L2652.26 1249Z" fill="#00b3f9" fill-rule="evenodd" opacity="1" stroke="none"/>
<path d="M2791.73 1170.35C2809.68 1185.2 2841.44 1200.93 2871.83 1200.93C2916.02 1200.93 2936.73 1172.97 2936.73 1138.01C2936.73 1101.3 2919.47 1081.2 2874.59 1060.23C2814.52 1033.13 2786.21 991.185 2786.21 940.496C2786.21 872.327 2829.71 816.394 2901.52 816.394C2935.35 816.394 2965.04 828.629 2983.68 842.612L2968.49 898.547C2955.37 888.059 2931.21 874.075 2900.14 874.075C2864.23 874.075 2844.21 900.294 2844.21 931.756C2844.21 966.715 2864.23 982.445 2907.73 1003.42C2965.73 1031.39 2995.42 1068.09 2995.42 1131.02C2995.42 1205.3 2949.85 1257.74 2870.44 1257.74C2833.85 1257.74 2800.02 1246.38 2776.54 1228.9L2791.73 1170.35Z" fill="#00b3f9" fill-rule="evenodd" opacity="1" stroke="none"/>
<path d="M3285.41 996.429C3286.1 947.487 3269.53 871.454 3201.18 871.454C3139.72 871.454 3112.8 943.117 3107.96 996.429L3285.41 996.429ZM3107.27 1051.49C3108.65 1155.49 3161.13 1198.31 3221.89 1198.31C3265.39 1198.31 3291.63 1188.7 3314.41 1176.46L3324.77 1231.52C3303.37 1243.76 3266.77 1257.74 3213.6 1257.74C3110.72 1257.74 3049.27 1172.09 3049.27 1044.5C3049.27 916.9 3108.65 816.394 3206.01 816.394C3315.1 816.394 3344.1 937.873 3344.1 1015.66C3344.1 1031.39 3342.72 1043.62 3342.03 1051.49L3107.27 1051.49Z" fill="#00b3f9" fill-rule="evenodd" opacity="1" stroke="none"/>
<path d="M3414.52 950.11C3414.52 901.168 3413.83 860.092 3411.76 823.385L3484.95 823.385L3488.4 886.31L3490.47 886.31C3507.04 853.1 3537.42 813.771 3594.04 813.771C3638.23 813.771 3672.76 845.235 3687.26 892.427L3688.64 892.427C3700.37 868.831 3714.19 851.352 3730.07 839.118C3748.71 822.512 3770.11 813.771 3797.73 813.771C3853.66 813.771 3910.28 861.84 3910.28 998.178L3910.28 1249L3827.42 1249L3827.42 1013.91C3827.42 943.117 3808.09 901.168 3767.35 901.168C3738.35 901.168 3716.95 927.387 3707.97 957.975C3705.9 968.463 3703.83 981.571 3703.83 993.808L3703.83 1249L3620.97 1249L3620.97 1002.55C3620.97 943.117 3602.33 901.168 3562.97 901.168C3531.21 901.168 3509.8 932.629 3502.21 962.345C3498.76 972.832 3497.38 985.068 3497.38 997.302L3497.38 1249L3414.52 1249L3414.52 950.11Z" fill="#333333" fill-rule="evenodd" opacity="1" stroke="none"/>
<path d="M4066.31 1036.63C4066.31 1118.78 4098.07 1180.83 4149.86 1180.83C4198.19 1180.83 4232.03 1120.53 4232.03 1034.88C4232.03 968.462 4208.55 892.428 4150.55 892.428C4090.48 892.428 4066.31 965.84 4066.31 1036.63M4319.72 1032.26C4319.72 1188.7 4232.72 1258.62 4147.1 1258.62C4051.81 1258.62 3978.62 1175.59 3978.62 1039.25C3978.62 899.42 4051.12 813.771 4152.62 813.771C4252.74 813.771 4319.72 902.916 4319.72 1032.26" fill="#333333" fill-rule="evenodd" opacity="1" stroke="none"/>
<path d="M4389.45 950.11C4389.45 901.168 4388.76 860.092 4386.68 823.385L4461.26 823.385L4465.4 887.184L4467.47 887.184C4481.97 853.975 4518.57 813.771 4574.49 813.771C4633.18 813.771 4693.94 861.84 4693.94 996.429L4693.94 1249L4609.02 1249L4609.02 1008.66C4609.02 947.487 4591.07 901.168 4544.8 901.168C4510.97 901.168 4487.49 931.757 4478.52 964.094C4475.75 973.706 4475.07 986.815 4475.07 999.052L4475.07 1249L4389.45 1249L4389.45 950.11Z" fill="#333333" fill-rule="evenodd" opacity="1" stroke="none"/>
<path d="M4869.32 1010.41L4870.69 1010.41C4878.98 993.807 4888.65 975.455 4897.62 960.596L4979.1 823.386L5081.29 823.386L4957 997.303L5099.24 1249L4994.98 1249L4898.31 1061.1L4869.32 1103.93L4869.32 1249L4784.39 1249L4784.39 628.494L4869.32 628.494L4869.32 1010.41Z" fill="#333333" fill-rule="evenodd" opacity="1" stroke="none"/>
<path d="M5338.83 991.185C5339.52 951.857 5325.71 887.186 5269.09 887.186C5216.62 887.186 5194.52 947.487 5191.07 991.185L5338.83 991.185ZM5191.07 1066.35C5193.14 1143.25 5240.78 1176.46 5294.64 1176.46C5334 1176.46 5362.31 1169.47 5387.86 1157.24L5400.28 1231.52C5371.28 1246.38 5331.24 1257.74 5282.9 1257.74C5173.81 1257.74 5109.59 1172.97 5109.59 1042.75C5109.59 924.764 5166.21 813.772 5273.93 813.772C5383.02 813.772 5418.93 927.387 5418.93 1020.9C5418.93 1041 5417.55 1056.73 5416.16 1066.35L5191.07 1066.35Z" fill="#333333" fill-rule="evenodd" opacity="1" stroke="none"/>
<path d="M5538.37 823.385L5599.13 1051.49C5606.04 1077.71 5612.94 1110.04 5617.78 1134.51L5619.85 1134.51C5625.37 1110.04 5631.59 1078.58 5637.8 1050.61L5690.28 823.385L5781.42 823.385L5697.18 1113.54C5650.92 1272.6 5619.85 1343.39 5579.8 1387.09C5546.66 1424.67 5512.14 1438.65 5490.73 1442.15L5471.4 1351.25C5485.9 1346.89 5503.85 1337.27 5521.11 1321.54C5536.99 1308.43 5555.63 1283.09 5567.37 1254.25C5570.82 1246.38 5572.9 1240.26 5572.9 1235.02C5572.9 1230.65 5572.21 1224.53 5568.06 1214.04L5445.16 823.385L5538.37 823.385Z" fill="#333333" fill-rule="evenodd" opacity="1" stroke="none"/>
<path d="M5818.01 1150.25C5837.35 1165.1 5873.94 1180.83 5904.32 1180.83C5941.61 1180.83 5958.18 1161.61 5958.18 1133.64C5958.18 1104.8 5944.37 1089.94 5902.94 1071.59C5837.35 1042.75 5809.73 997.303 5810.42 947.487C5810.42 872.328 5859.44 813.772 5937.47 813.772C5974.75 813.772 6007.21 826.008 6026.54 839.118L6009.97 915.151C5995.47 904.663 5968.54 890.68 5938.85 890.68C5908.47 890.68 5891.89 909.034 5891.89 935.252C5891.89 962.345 5907.78 975.455 5950.59 994.68C6011.35 1022.65 6039.66 1061.98 6040.35 1124.9C6040.35 1201.81 5992.71 1257.74 5903.63 1257.74C5862.9 1257.74 5826.3 1245.51 5801.44 1228.03L5818.01 1150.25Z" fill="#333333" fill-rule="evenodd" opacity="1" stroke="none"/>
</g>
</svg>
