<?xml version="1.0" encoding="UTF-8" standalone="no"?>
<!DOCTYPE svg PUBLIC "-//W3C//DTD SVG 1.1//EN" "http://www.w3.org/Graphics/SVG/1.1/DTD/svg11.dtd">
<!-- Created with Vectornator (http://vectornator.io/) -->
<svg height="100%" stroke-miterlimit="10" style="fill-rule:nonzero;clip-rule:evenodd;stroke-linecap:round;stroke-linejoin:round;" version="1.1" viewBox="0 0 6098 1693" width="100%" xml:space="preserve" xmlns="http://www.w3.org/2000/svg" xmlns:vectornator="http://vectornator.io" xmlns:xlink="http://www.w3.org/1999/xlink">
<defs/>
<g id="Logo-White" vectornator:layerName="Logo White">
<path d="M30.8574 892.682C56.0203 891.894 76.6931 887.374 92.2595 878.909C112.518 867.689 128.084 852.343 138.534 832.858C149.193 813.173 155.379 785.626 157.512 749.998C158.364 732.291 158.997 691.747 159.644 628.38C160.277 565.207 164.759 519.942 173.285 492.589C181.604 465.426 194.604 443.774 212.094 427.64C229.792 411.506 252.181 399.69 279.258 392.415C295.678 388.276 321.684 386.117 357.715 386.117L392.905 386.117L392.905 477.04L373.5 477.04C329.785 477.04 301.002 484.515 287.141 499.279C273.29 514.039 266.249 546.117 266.249 595.508C266.249 684.856 264.753 741.935 261.767 766.535C256.443 813.565 244.288 849.776 225.31 874.973C206.333 899.968 176.489 921.61 135.759 939.519C181.604 957.632 214.652 984.784 235.334 1021.2C256.018 1057.4 266.249 1116.84 266.249 1199.5C266.249 1273.1 267.103 1316.79 268.808 1330.18C271.158 1351.04 276.482 1366.98 284.373 1378C290.123 1385.67 299.514 1391.78 312.086 1396.11C324.887 1400.63 351.748 1402.8 392.905 1402.8L392.905 1519.28L357.933 1519.28C316.143 1519.28 285.652 1515.93 266.458 1509.44C238.526 1499.79 216.139 1458.89 199.087 1437.44C182.24 1416.18 171.363 1387.64 166.247 1352.02C162.627 1326.64 160.495 1279.41 160.069 1210.13C159.644 1139.48 155.379 1091.65 147.268 1066.66C139.169 1041.66 125.307 1022.38 105.695 1008.8C86.2909 995.025 61.3459 987.933 30.8574 987.145L30.8574 892.682Z" fill="#eaeaea" fill-rule="evenodd" opacity="1" stroke="none"/>
<path d="M1880.62 917.362L1880.62 1011.83C1855.45 1012.22 1834.77 1016.55 1819.2 1025.01C1798.95 1036.23 1783.38 1051.58 1772.94 1071.27C1762.28 1090.75 1756.1 1118.5 1753.97 1154.12C1753.11 1171.84 1752.47 1212.57 1751.83 1276.14C1751.19 1339.71 1746.72 1384.97 1738.18 1412.13C1729.87 1439.09 1716.86 1486.5 1699.38 1502.83C1681.68 1519.16 1659.3 1530.77 1632.22 1537.66C1615.8 1541.79 1589.78 1543.96 1553.75 1543.96L1518.57 1543.96L1518.57 1427.48L1537.98 1427.48C1581.68 1427.48 1610.46 1420.19 1624.33 1405.63C1638.19 1391.07 1645.23 1358.99 1645.23 1309.39C1645.23 1217.69 1646.93 1159.23 1650.12 1134.24C1656.09 1087.79 1669.32 1051.39 1689.78 1025.41C1710.47 999.234 1739.04 978.963 1775.71 964.2C1727.09 942.751 1693.2 914.607 1674.01 879.385C1654.81 844.351 1645.23 786.291 1645.23 705.41C1645.23 620.581 1643.3 570.991 1639.67 556.43C1634.98 536.744 1626.25 522.779 1613.02 514.313C1600.02 505.847 1574.86 501.72 1537.98 501.72L1518.57 501.72L1518.57 410.798L1553.54 410.798C1595.32 410.798 1625.82 414.34 1645.01 421.222C1672.94 430.283 1695.33 445.628 1712.38 467.274C1729.23 488.724 1740.1 517.068 1745.22 552.494C1748.85 577.679 1750.98 624.921 1751.41 693.997C1751.83 764.649 1756.1 812.466 1764.2 837.66C1772.3 862.847 1786.16 882.137 1805.77 895.719C1825.18 909.493 1850.34 916.575 1880.62 917.362" fill="#eaeaea" fill-rule="evenodd" opacity="1" stroke="none"/>
<path d="M656.907 1064.23C660.076 991.345 753.246 990.079 760.852 989.444C760.852 989.444 838.179 981.84 873.671 1014.8C909.165 1047.76 888.246 1159.31 849.582 1183.39C808.685 1208.87 739.934 1210.01 708.243 1189.73C676.552 1169.45 653.738 1137.12 656.907 1064.23M1253.38 1192.1C1220.89 1212.89 1150.4 1211.72 1108.46 1185.6C1068.82 1160.9 1047.37 1046.53 1083.77 1012.74C1120.16 978.946 1199.44 986.744 1199.44 986.744C1207.24 987.393 1302.77 988.693 1306.02 1063.43C1309.27 1138.16 1285.87 1171.3 1253.38 1192.1M979.975 1030.03C982.992 1030.46 986.737 1031.11 991.374 1032.06C1020.99 1038.14 1018.72 1089.79 1038.46 1143.71C1058.21 1197.63 1096.19 1250.04 1213.15 1240.93C1330.11 1231.81 1344.54 1127 1348.34 1104.97C1352.14 1082.95 1361.25 1061.68 1361.25 1061.68L1372.72 1050.21C1375.11 1047.83 1376.44 1044.6 1376.44 1041.23L1376.44 987.406C1376.44 981.485 1372.36 976.37 1366.59 975.042C1347.49 970.655 1302.11 960.845 1243.53 952.314C1165.3 940.922 1085.55 956.112 1068.84 967.504C1052.13 978.898 1038.46 982.694 1038.46 982.694L921.49 982.694C921.49 982.694 907.819 978.896 891.11 967.503C874.404 956.11 794.656 940.919 716.427 952.31C657.843 960.841 612.463 970.65 593.366 975.038C587.595 976.365 583.51 981.478 583.51 987.401L583.51 1041.23C583.51 1044.6 584.848 1047.83 587.228 1050.21L598.7 1061.68C598.7 1061.68 607.813 1082.94 611.612 1104.97C615.409 1127 629.836 1231.81 746.801 1240.92C863.765 1250.04 901.741 1197.63 921.49 1143.71C941.238 1089.78 938.959 1038.14 968.58 1032.06C973.217 1031.11 976.962 1030.46 979.975 1030.03" fill="#00b3f9" fill-rule="evenodd" opacity="1" stroke="none"/>
<path d="M773.819 1254.29C772.34 1254.31 770.899 1254.37 769.391 1254.37L769.384 1254.37C760.806 1254.36 751.765 1254 742.513 1253.28C733.578 1252.58 724.281 1251.29 714.876 1249.18L744.895 1343.07L853.212 1322.59C822.733 1302.81 796.193 1279.56 773.819 1254.29" fill="#eaeaea" fill-rule="evenodd" opacity="1" stroke="none"/>
<path d="M956.872 1212.48C963.671 1220.1 964.436 1230.51 958.583 1235.73C952.729 1240.95 942.474 1239 935.676 1231.38C928.879 1223.76 928.114 1213.34 933.967 1208.12C939.819 1202.91 950.075 1204.85 956.872 1212.48" fill="#eaeaea" fill-rule="evenodd" opacity="1" stroke="none"/>
<path d="M1026.43 1231.5C1019.54 1239.04 1009.26 1240.87 1003.47 1235.58C997.679 1230.3 998.567 1219.89 1005.45 1212.35C1012.34 1204.81 1022.62 1202.98 1028.41 1208.27C1034.2 1213.56 1033.31 1223.96 1026.43 1231.5" fill="#eaeaea" fill-rule="evenodd" opacity="1" stroke="none"/>
<path d="M1372.09 958.944C1402.63 771.632 1244.47 676.002 1082.08 622.88C956.357 585.347 907.425 508.641 907.425 508.641C899.489 560.218 912.714 579.395 912.714 579.395C830.718 541.703 792.366 455.74 792.366 455.74C785.288 495.933 792.72 527.303 804.584 550.759C709.776 510.543 682.564 444.441 682.564 444.441C605.951 636.636 741.346 742.971 741.346 742.971C600.007 810.338 614.536 945.735 614.536 945.735C507.54 949.037 467.252 1038.2 506.219 1168.97C540.742 1284.83 679.433 1263.83 710.634 1257.54C685.388 1250.72 648.881 1236.34 623.122 1199.35C609.912 1223.79 538.972 1178.16 528.015 1107.55C519.605 1053.35 553.774 1048.11 568.146 1053.16C567.834 1051.46 567.658 1049.72 567.658 1047.95L567.658 994.126C567.658 980.752 576.769 969.317 589.814 966.314C611.38 961.36 656.208 951.788 714.141 943.351C722.98 942.064 732.082 941.102 741.346 940.406C749.199 933.684 757.983 927.705 767.765 922.619C899.858 853.93 998.269 962.247 998.269 962.247C1016.76 935.167 1082.81 862.515 1207.64 907.428C1230.52 915.659 1248.21 928.968 1261.47 945.717C1311.77 953.518 1350.56 961.82 1370.14 966.318C1383.19 969.32 1392.3 980.756 1392.3 994.133L1392.3 1047.96C1392.3 1048.88 1392.25 1049.79 1392.16 1050.69C1400.57 1044.14 1418.99 1038.86 1430.87 1046.79C1459.56 1065.91 1438.14 1107.55 1425.59 1129.34C1416.16 1145.73 1348.39 1252.82 1324.05 1210.49C1292.97 1247.94 1250.68 1260.63 1214.38 1263.45C1211.98 1263.64 1209.65 1263.74 1207.28 1263.88C1164.99 1298.85 1136.45 1324.77 1134.9 1325.29C1132.91 1325.95 1208.96 1367.11 1208.96 1367.11L1276.98 1258.14C1450.03 1309.65 1487.01 1146.52 1487.01 1146.52C1535.23 934.506 1372.09 958.944 1372.09 958.944" fill="#eaeaea" fill-rule="evenodd" opacity="1" stroke="none"/>
<path d="M5549.51 764.585L5610.47 993.426C5617.4 1019.73 5624.32 1052.17 5629.17 1076.72L5631.25 1076.72C5636.79 1052.17 5643.03 1020.61 5649.26 992.55L5701.91 764.585L5793.35 764.585L5708.83 1055.68C5662.42 1215.25 5631.25 1286.27 5591.07 1330.11C5557.82 1367.81 5523.19 1381.84 5501.71 1385.35L5482.32 1294.17C5496.86 1289.78 5514.88 1280.14 5532.19 1264.35C5548.13 1251.2 5566.83 1225.78 5578.61 1196.84C5582.07 1188.95 5584.15 1182.81 5584.15 1177.55C5584.15 1173.17 5583.45 1167.03 5579.3 1156.51L5455.99 764.585L5549.51 764.585Z" fill="#eaeaea" fill-rule="evenodd" opacity="1" stroke="none"/>
<path d="M2134.53 1021.48C2134.53 1031.13 2135.92 1040.77 2137.3 1049.54C2149.08 1103.03 2184.41 1139.85 2228.74 1139.85C2292.47 1139.85 2330.57 1074.09 2330.57 976.768C2330.57 891.719 2295.93 818.946 2230.82 818.946C2189.26 818.946 2150.47 854.893 2138 913.639C2136.61 922.407 2134.53 932.929 2134.53 945.203L2134.53 1021.48ZM2071.5 1191.58C2072.88 1162.65 2074.27 1119.68 2074.27 1081.98L2074.27 569.061L2134.53 569.061L2134.53 835.605L2135.92 835.605C2157.39 788.259 2196.18 757.571 2250.22 757.571C2333.34 757.571 2392.22 845.248 2391.53 974.138C2391.53 1125.82 2316.02 1201.22 2241.21 1201.22C2192.72 1201.22 2153.93 1177.55 2128.99 1121.44L2126.91 1121.44L2124.14 1191.58L2071.5 1191.58Z" fill="#00b3f9" fill-rule="evenodd" opacity="1" stroke="none"/>
<path d="M2645.04 975.014C2578.54 973.26 2503.04 988.166 2503.04 1070.58C2503.04 1120.56 2529.36 1144.24 2560.53 1144.24C2604.17 1144.24 2631.88 1109.16 2641.58 1073.21C2643.66 1065.32 2645.04 1056.55 2645.04 1048.66L2645.04 975.014ZM2654.05 1191.58L2649.2 1138.1L2647.12 1138.1C2628.42 1171.41 2592.4 1201.23 2544.6 1201.23C2476.72 1201.23 2442.08 1140.73 2442.08 1079.35C2442.08 976.768 2514.12 920.654 2643.66 921.53L2643.66 912.763C2643.66 877.69 2636.04 814.562 2567.46 814.562C2536.29 814.562 2503.73 826.837 2480.18 846.127L2466.33 795.272C2494.03 772.477 2534.21 757.571 2576.47 757.571C2678.99 757.571 2703.92 846.127 2703.92 931.175L2703.92 1089.87C2703.92 1126.7 2705.31 1162.65 2709.47 1191.58L2654.05 1191.58Z" fill="#00b3f9" fill-rule="evenodd" opacity="1" stroke="none"/>
<path d="M2793.97 1112.67C2811.98 1127.58 2843.84 1143.36 2874.32 1143.36C2918.66 1143.36 2939.44 1115.3 2939.44 1080.23C2939.44 1043.4 2922.12 1023.24 2877.09 1002.19C2816.83 975.014 2788.43 932.929 2788.43 882.074C2788.43 813.684 2832.07 757.57 2904.11 757.57C2938.05 757.57 2967.84 769.846 2986.54 783.875L2971.3 839.989C2958.14 829.468 2933.9 815.439 2902.72 815.439C2866.7 815.439 2846.61 841.743 2846.61 873.308C2846.61 908.378 2866.7 924.161 2910.34 945.204C2968.53 973.26 2998.32 1010.09 2998.32 1073.21C2998.32 1147.74 2952.6 1200.35 2872.94 1200.35C2836.22 1200.35 2802.28 1188.95 2778.73 1171.41L2793.97 1112.67Z" fill="#00b3f9" fill-rule="evenodd" opacity="1" stroke="none"/>
<path d="M3289.25 938.19C3289.94 889.089 3273.32 812.808 3204.74 812.808C3143.09 812.808 3116.07 884.705 3111.22 938.19L3289.25 938.19ZM3110.53 993.427C3111.92 1097.76 3164.56 1140.73 3225.52 1140.73C3269.16 1140.73 3295.49 1131.08 3318.35 1118.81L3328.74 1174.04C3307.26 1186.32 3270.55 1200.35 3217.21 1200.35C3113.99 1200.35 3052.35 1114.42 3052.35 986.412C3052.35 858.402 3111.92 757.571 3209.59 757.571C3319.04 757.571 3348.13 879.444 3348.13 957.478C3348.13 973.26 3346.75 985.535 3346.05 993.427L3110.53 993.427Z" fill="#00b3f9" fill-rule="evenodd" opacity="1" stroke="none"/>
<path d="M3418.78 891.719C3418.78 842.62 3418.08 801.411 3416 764.585L3489.43 764.585L3492.9 827.714L3494.98 827.714C3511.6 794.395 3542.08 754.94 3598.88 754.94C3643.21 754.94 3677.85 786.505 3692.4 833.851L3693.78 833.851C3705.56 810.179 3719.41 792.643 3735.34 780.368C3754.05 763.708 3775.52 754.94 3803.23 754.94C3859.34 754.94 3916.14 803.163 3916.14 939.943L3916.14 1191.58L3833.02 1191.58L3833.02 955.724C3833.02 884.706 3813.62 842.62 3772.75 842.62C3743.66 842.62 3722.18 868.923 3713.18 899.61C3711.1 910.132 3709.02 923.284 3709.02 935.559L3709.02 1191.58L3625.9 1191.58L3625.9 944.325C3625.9 884.706 3607.19 842.62 3567.71 842.62C3535.84 842.62 3514.37 874.184 3506.75 903.994C3503.29 914.515 3501.9 926.791 3501.9 939.066L3501.9 1191.58L3418.78 1191.58L3418.78 891.719Z" fill="#eaeaea" fill-rule="evenodd" opacity="1" stroke="none"/>
<path d="M4072.68 978.522C4072.68 1060.94 4104.54 1123.19 4156.5 1123.19C4204.99 1123.19 4238.93 1062.69 4238.93 976.767C4238.93 910.131 4215.38 833.851 4157.19 833.851C4096.93 833.851 4072.68 907.501 4072.68 978.522M4326.9 974.138C4326.9 1131.08 4239.62 1201.23 4153.73 1201.23C4058.13 1201.23 3984.71 1117.93 3984.71 981.151C3984.71 840.865 4057.44 754.94 4159.27 754.94C4259.71 754.94 4326.9 844.372 4326.9 974.138" fill="#eaeaea" fill-rule="evenodd" opacity="1" stroke="none"/>
<path d="M4396.86 891.719C4396.86 842.62 4396.17 801.411 4394.09 764.585L4468.9 764.585L4473.06 828.591L4475.14 828.591C4489.68 795.273 4526.4 754.94 4582.51 754.94C4641.39 754.94 4702.35 803.163 4702.35 938.19L4702.35 1191.58L4617.14 1191.58L4617.14 950.463C4617.14 889.089 4599.13 842.62 4552.72 842.62C4518.78 842.62 4495.23 873.306 4486.22 905.748C4483.45 915.393 4482.76 928.545 4482.76 940.82L4482.76 1191.58L4396.86 1191.58L4396.86 891.719Z" fill="#eaeaea" fill-rule="evenodd" opacity="1" stroke="none"/>
<path d="M4878.28 952.218L4879.67 952.218C4887.98 935.558 4897.68 917.147 4906.69 902.241L4988.43 764.586L5090.95 764.586L4966.26 939.066L5108.96 1191.58L5004.36 1191.58L4907.38 1003.07L4878.28 1046.03L4878.28 1191.58L4793.08 1191.58L4793.08 569.062L4878.28 569.062L4878.28 952.218Z" fill="#eaeaea" fill-rule="evenodd" opacity="1" stroke="none"/>
<path d="M5349.32 932.929C5350.02 893.473 5336.16 828.592 5279.36 828.592C5226.71 828.592 5204.54 889.089 5201.08 932.929L5349.32 932.929ZM5201.08 1008.33C5203.16 1085.49 5250.96 1118.81 5304.99 1118.81C5344.47 1118.81 5372.87 1111.79 5398.5 1099.52L5410.97 1174.04C5381.88 1188.95 5341.7 1200.35 5293.21 1200.35C5183.76 1200.35 5119.34 1115.3 5119.34 984.659C5119.34 866.292 5176.14 754.94 5284.21 754.94C5393.66 754.94 5429.68 868.922 5429.68 962.739C5429.68 982.905 5428.29 998.688 5426.91 1008.33L5201.08 1008.33Z" fill="#eaeaea" fill-rule="evenodd" opacity="1" stroke="none"/>
<path d="M5830.06 1092.5C5849.45 1107.41 5886.17 1123.19 5916.65 1123.19C5954.05 1123.19 5970.68 1103.9 5970.68 1075.84C5970.68 1046.91 5956.82 1032.01 5915.26 1013.59C5849.45 984.659 5821.74 939.067 5822.44 889.089C5822.44 813.685 5871.62 754.94 5949.9 754.94C5987.3 754.94 6019.86 767.216 6039.26 780.368L6022.63 856.649C6008.09 846.127 5981.07 832.098 5951.28 832.098C5920.8 832.098 5904.18 850.511 5904.18 876.813C5904.18 903.994 5920.11 917.147 5963.06 936.434C6024.02 964.493 6052.42 1003.95 6053.11 1067.08C6053.11 1144.23 6005.31 1200.35 5915.95 1200.35C5875.08 1200.35 5838.37 1188.07 5813.43 1170.54L5830.06 1092.5Z" fill="#eaeaea" fill-rule="evenodd" opacity="1" stroke="none"/>
</g>
</svg>
